# xmcd
#
# Track frame offsets:
# 150
# 11236
# 23634
# 31965
# 41070
# 54156
# 67906
# 78786
# 90169
# 99699
# 111607
# 128505
#
# Disc length: 1771 seconds
#
#
# Revision: 0
# Processed by: cddbd v1.5.1PL0 Copyright (c) Steve Scherf et al.
# Submitted via: FreeRIP 2.60 
#
DISCID=8906e90c
DTITLE=Jos Jutten - HomeCraft
DYEAR=2001
DGENRE=Ballad
TTITLE0=You ain´t going nowhere
TTITLE1=Drugstore truck drivin´ man
TTITLE2=I´ll cry instead
TTITLE3=Norwegian wood
TTITLE4=Can´t hold out
TTITLE5=Stuck in the middle with you
TTITLE6=Teach your children
TTITLE7=Wasn´t born to follow
TTITLE8=You´ve got to hide your love away
TTITLE9=Tiffany Queen
TTITLE10=Knocking on heavens door
TTITLE11=Tuut´n
EXTD=
EXTT0=
EXTT1=
EXTT2=
EXTT3=
EXTT4=
EXTT5=
EXTT6=
EXTT7=
EXTT8=
EXTT9=
EXTT10=
EXTT11=
PLAYORDER=
